<?xml version="1.0" standalone="no"?>
<!DOCTYPE svg PUBLIC "-//W3C//DTD SVG 1.1//EN" "http://www.w3.org/Graphics/SVG/1.1/DTD/svg11.dtd" >
<!--
2013-9-30: Created.
-->
<svg>
<metadata>
Created by iconfont
</metadata>
<defs>

<font id="iconfont" horiz-adv-x="1024" >
  <font-face
    font-family="iconfont"
    font-weight="500"
    font-stretch="normal"
    units-per-em="1024"
    ascent="896"
    descent="-128"
  />
    <missing-glyph />
    
    <glyph glyph-name="x" unicode="x" horiz-adv-x="1001"
d="M281 543q-27 -1 -53 -1h-83q-18 0 -36.5 -6t-32.5 -18.5t-23 -32t-9 -45.5v-76h912v41q0 16 -0.5 30t-0.5 18q0 13 -5 29t-17 29.5t-31.5 22.5t-49.5 9h-133v-97h-438v97zM955 310v-52q0 -23 0.5 -52t0.5 -58t-10.5 -47.5t-26 -30t-33 -16t-31.5 -4.5q-14 -1 -29.5 -0.5
t-29.5 0.5h-32l-45 128h-439l-44 -128h-29h-34q-20 0 -45 1q-25 0 -41 9.5t-25.5 23t-13.5 29.5t-4 30v167h911zM163 247q-12 0 -21 -8.5t-9 -21.5t9 -21.5t21 -8.5q13 0 22 8.5t9 21.5t-9 21.5t-22 8.5zM316 123q-8 -26 -14 -48q-5 -19 -10.5 -37t-7.5 -25t-3 -15t1 -14.5
t9.5 -10.5t21.5 -4h37h67h81h80h64h36q23 0 34 12t2 38q-5 13 -9.5 30.5t-9.5 34.5q-5 19 -11 39h-368zM336 498v228q0 11 2.5 23t10 21.5t20.5 15.5t34 6h188q31 0 51.5 -14.5t20.5 -52.5v-227h-327z" />
    

    
    <glyph glyph-name="ttpodicon" unicode="&#58952;" d="M815.045407-14.541813c-18.198218 20.869307-76.860685 88.349187-110.542175 127.250172l68.990106 0L773.493338 626.547241l84.138744 0 0-513.839905 67.838838 0C892.265287 74.420335 834.40001 7.741703 815.045407-14.541813zM64.491463 122.381673l483.5468 0 0-58.014298-483.5468 0 0 58.014298ZM64.491463 355.943127l576.145571 0 0-58.014298-576.145571 0 0 58.014298ZM64.491463 589.509696l576.145571 0 0-58.014298-576.145571 0 0 58.014298Z"  horiz-adv-x="1024" />

    
    <glyph glyph-name="suijibofang" unicode="&#59121;" d="M537.728 429.984c55.552 55.04 127.04 79.616 231.808 79.616l5.312 0 0-59.712c0-19.072 13.056-26.24 29.12-15.872l143.68 92.8c16 10.368 15.808 27.072-0.32 37.056l-143.04 88.64c-16.192 10.048-29.44 2.624-29.44-16.448l0-59.392-5.312 0c-122.176 0-210.816-31.424-278.976-99.072C422.208 409.888 420.416 347.104 419.008 296.672c-0.64-21.696-1.152-40.384-6.592-57.472-12.16-38.4-44.032-73.92-89.728-99.904-57.472-32.896-135.04-49.728-224.32-48.768-0.128 0-0.256 0-0.384 0-18.368 0-33.344-14.72-33.536-33.152-0.192-18.496 14.656-33.728 33.152-33.856 2.816 0 5.568-0.128 8.32-0.128 49.408 0 95.872 4.992 138.112 14.72 41.536 9.728 79.168 24.128 111.936 42.752 60.352 34.624 103.104 83.52 120.384 137.984 8.256 26.112 8.96 51.392 9.664 75.84C487.36 341.088 488.448 381.216 537.728 429.984zM98.432 509.536c112.192 1.216 206.016-26.048 264.128-76.8 6.336-5.568 14.208-8.256 22.016-8.256 9.344 0 18.624 3.904 25.28 11.456 12.16 13.952 10.752 35.072-3.2 47.296-33.728 29.504-76.032 52.48-125.504 68.352-54.016 17.344-115.776 25.728-183.488 24.96-18.496-0.192-33.344-15.36-33.152-33.92C64.704 524.192 79.872 509.28 98.432 509.536zM947.328 77.728l-143.04 88.512c-16.192 10.112-29.44 2.624-29.44-16.384l0-59.392-5.312 0c-93.696 0-165.632 28.032-226.368 88.256-13.12 12.992-34.368 12.864-47.36-0.256-13.056-13.12-12.992-34.368 0.128-47.488 73.152-72.384 162.688-107.648 273.6-107.648l5.312 0 0-59.776c0-19.008 13.056-26.24 29.12-15.744l143.68 92.736C963.648 50.976 963.456 67.616 947.328 77.728z"  horiz-adv-x="1024" />

    
    <glyph glyph-name="cd" unicode="&#58992;" d="M512 896C229.248 896 0 666.752 0 384s229.248-512 512-512 512 229.248 512 512S794.752 896 512 896zM512.992 258.112c-70.016 0-126.88 56.736-126.88 126.88 0 70.24 56.864 127.008 126.88 127.008C583.264 512 640 455.264 640 384.992 640 314.88 583.264 258.112 512.992 258.112z"  horiz-adv-x="1024" />

    
    <glyph glyph-name="yinle" unicode="&#58902;" d="M575.444473 842.271308M511.999488 778.826324M1778.852562 842.271308M1715.407578 778.826324M4222.507764 842.271308M4159.062779 778.826324M868.172467 271.013693 868.172467 271.013693l0 6.087649 0 6.085602 0 316.836065-0.676405 0.675382c0.676405 1.352811 0 2.705622 0 4.059456-2.051729 6.77531-9.492188 11.508102-16.256242 9.479909l-303.973106-76.501348c-6.763031-1.350764-10.843976-7.439436-10.168594-13.538341l0 0L537.098119 267.60813c-22.99676 13.549597-57.538461 15.579837-90.028433 1.352811-47.393403-19.615757-73.794703-64.97892-58.226123-100.197026 14.892175-35.196617 64.990177-47.367821 112.38358-27.077705 37.923728 15.579837 62.295811 48.068785 62.295811 77.852112l0 0 0 0c0 0.700965 0 1.376347 0 2.051729l0 58.892295 0 0L563.522955 514.040728l277.56976 69.736271 0-264.042675c-21.667485 16.257266-54.856375 23.695678-89.37454 16.934694-55.509245-9.470699-94.78476-51.450812-87.322811-93.432972 7.440459-41.959647 58.892295-67.685565 115.076922-57.539484C831.602573 194.490855 869.525278 232.412536 868.172467 271.013693L868.172467 271.013693zM855.973634 24.579047c-183.459359-131.331118-435.980629-103.579053-586.952063 64.303538-150.971433 167.904081-150.971433 422.453544 0 590.345346C419.993005 847.133036 672.514275 874.887147 855.973634 742.866321l-28.430516-38.587853C664.396387 821.406095 438.266184 797.034011 304.227398 647.415388c-134.726447-150.295028-134.726447-377.079124 0-526.696724 134.038786-149.617599 360.168989-174.668135 523.31572-56.885592L855.973634 24.579047z"  horiz-adv-x="1024" />

    
    <glyph glyph-name="xunhuanbofangzhongzuo" unicode="&#58913;" d="M370.176 724.992l379.2 0L749.376 797.504c0 23.168 15.936 31.808 35.392 19.264l174.592-112.768c19.456-12.544 19.264-32.832-0.448-45.056l-173.76-107.648c-19.712-12.224-35.776-3.2-35.776 19.968L749.376 643.52 370.176 643.52c-154.304 0-279.872-125.568-279.872-279.872 0-25.536 3.456-50.752 10.176-75.072 6.016-21.696-6.656-44.16-28.352-50.176-3.648-1.024-7.296-1.472-10.944-1.472-17.856 0-34.24 11.84-39.232 29.824-8.704 31.424-13.184 64-13.184 96.896 0 96.512 37.568 187.264 105.856 255.488C182.912 687.424 273.664 724.992 370.176 724.992zM662.656 33.6 283.456 33.6l0-72.512c0-23.168-15.936-31.808-35.392-19.264l-174.592 112.768c-19.456 12.544-19.264 32.832 0.448 45.056l173.76 107.648c19.712 12.224 35.776 3.2 35.776-19.968l0-72.192 379.2 0c154.304 0 279.872 125.568 279.872 279.872 0 25.536-3.456 50.752-10.176 75.072-6.016 21.696 6.656 44.16 28.352 50.176 3.648 1.024 7.296 1.472 10.944 1.472 17.856 0 34.24-11.84 39.232-29.824C1019.584 460.416 1024 427.776 1024 394.944c0-96.512-37.568-187.264-105.856-255.488C849.92 71.168 759.168 33.6 662.656 33.6z"  horiz-adv-x="1025" />

    
    <glyph glyph-name="danquxunhuan" unicode="&#58909;" d="M567.138462 714.830769l-189.046154 0c-99.774359 0-196.923077-39.384615-267.815385-110.276923-70.892308-70.892308-110.276923-165.415385-110.276923-267.815385 0-34.133333 5.251282-68.266667 13.128205-102.4 5.251282-18.379487 23.630769-31.507692 42.010256-31.507692 2.625641 0 7.876923 0 10.502564 2.625641 23.630769 5.251282 36.758974 28.882051 28.882051 52.512821-7.876923 26.25641-10.502564 52.512821-10.502564 78.769231 0 162.789744 131.282051 294.071795 294.071795 294.071795l173.292308 0C554.010256 659.692308 559.261538 688.574359 567.138462 714.830769zM947.85641 239.589744c-47.261538-97.148718-147.035897-165.415385-262.564103-165.415385L288.820513 74.174359l0 76.14359c0 23.630769-15.753846 34.133333-36.758974 21.005128l-181.169231-112.902564c-21.005128-13.128205-21.005128-34.133333 0-47.261538l183.794872-118.153846c21.005128-13.128205 36.758974-5.251282 36.758974 21.005128l0 76.14359 396.471795 0c99.774359 0 196.923077 39.384615 267.815385 110.276923 44.635897 44.635897 78.769231 99.774359 94.523077 160.164103C1016.123077 250.092308 981.989744 242.215385 947.85641 239.589744zM918.974359 896c-160.164103 0-288.820513-128.65641-288.820513-288.820513s128.65641-288.820513 288.820513-288.820513 288.820513 128.65641 288.820513 288.820513S1079.138462 896 918.974359 896zM971.487179 452.266667l-55.138462 0 0 217.928205c-21.005128-18.379487-44.635897-31.507692-76.14359-42.010256L840.205128 685.948718c15.753846 2.625641 31.507692 10.502564 47.261538 21.005128 15.753846 10.502564 31.507692 21.005128 42.010256 34.133333l42.010256 0L971.487179 452.266667z"  horiz-adv-x="1208" />

    
    <glyph glyph-name="bofangliebiao" unicode="&#58880;" d="M672 270.890667 672 703.914667c0 17.749333 14.421333 32.085333 31.701333 32.085333l128.597333 0c17.493333 0 31.701333-14.208 31.701333-32 0-17.664-14.421333-32-31.701333-32L736 672l0-514.218667c0 0 0 0 0 0-1.194667-69.674667-58.026667-125.781333-128-125.781333-70.698667 0-128 57.301333-128 128s57.301333 128 128 128C631.296 288 653.184 281.770667 672 270.890667L672 270.890667zM160 256c0 17.664 14.506667 32 32.426667 32l191.146667 0c17.92 0 32.426667-14.208 32.426667-32 0-17.664-14.506667-32-32.426667-32L192.426667 224C174.506667 224 160 238.208 160 256zM160 416c0 17.664 14.378667 32 32.213333 32l383.573333 0c17.792 0 32.213333-14.208 32.213333-32 0-17.664-14.378667-32-32.213333-32l-383.573333 0C174.421333 384 160 398.208 160 416zM160 576c0 17.664 14.378667 32 32.213333 32l383.573333 0c17.792 0 32.213333-14.208 32.213333-32 0-17.664-14.378667-32-32.213333-32l-383.573333 0C174.421333 544 160 558.208 160 576z"  horiz-adv-x="1024" />

    
    <glyph glyph-name="geci" unicode="&#58881;" d="M793.941333 736 230.058667 736C191.36 736 160 704.384 160 665.941333l0-563.84C160 63.36 191.616 32 230.058667 32l563.84 0c38.698667 0 70.058667 31.616 70.058667 70.058667L863.957333 665.941333C864 704.64 832.384 736 793.941333 736zM799.658667 96c0 0.298667-575.658667 0.341333-575.658667 0.341333C224.298667 96.341333 224.341333 672 224.341333 672 224.341333 671.701333 800 671.658667 800 671.658667 799.701333 671.658667 799.658667 96 799.658667 96zM703.658667 214.528l0.341333-0.170667L704 546.346667c-1.152 18.602667-13.952 28.501333-38.357333 29.653333L459.776 576c-12.8-1.152-19.754667-9.301333-20.949333-24.405333 1.152-15.104 8.149333-23.253333 20.949333-24.405333l190.122667 0c3.498667 0 5.248-1.749333 5.248-5.248l0-282.581333 0.469333-0.256-65.792 0c-6.698667 0-17.578667-8.704-18.432-22.656 0.853333-15.104 10.112-23.253333 18.432-24.405333l98.944 0C697.557333 193.109333 702.506667 200.618667 703.658667 214.528zM477.226667 457.386667c-11.648 1.152-18.005333 9.301333-19.2 24.405333 1.152 13.952 7.552 21.504 19.2 22.656l143.018667 0c13.952-1.152 21.504-8.704 22.656-22.656-1.152-15.104-8.149333-23.253333-20.949333-24.405333L477.226667 457.386667zM334.72 528.896C327.893333 530.048 312.704 538.197333 312.021333 553.344 312.704 567.296 325.418667 574.848 332.288 576l56.234667 0c8.234667-1.152 20.010667-8.704 20.693333-22.656C408.576 538.197333 396.074667 530.048 388.522667 528.896L334.72 528.896zM402.218667 240.384l0 204.8c1.152 25.6-8.704 37.802667-29.653333 36.650667L330.709333 481.834667C317.909333 480.64 310.954667 472.490667 309.76 457.386667c1.152-16.298667 8.149333-25.002667 20.949333-26.154667L348.16 431.232c3.498667 0 5.248-1.749333 5.248-5.248l0-206.677333c-0.085333-0.512-0.128-1.066667-0.128-1.621333 0.128-3.029333 0.853333-5.76 1.962667-8.234667 2.901333-9.514667 7.893333-14.464 19.114667-17.237333 1.877333-0.298667 3.712 0.085333 5.546667 1.066667l49.152 0c7.253333 1.152 20.778667 9.301333 21.461333 24.405333-0.64 13.952-13.525333 21.504-21.461333 22.656 0 0-12.16 0-24.874667 0L402.218667 240.341333zM499.925333 262.016c-24.405333 0-36.650667 11.648-36.650667 34.901333L463.274667 398.08c0 23.253333 10.453333 34.901333 31.402667 34.901333l102.912 0c24.405333 0 36.053333-9.898667 34.901333-29.653333l0-106.410667c0-23.253333-10.453333-34.901333-31.402667-34.901333L499.925333 262.016zM512.128 312.618667c1.152-2.346667 2.901333-4.053333 5.248-5.248l61.056 0c3.498667 0 5.248 1.749333 5.248 5.248L583.68 380.629333c0 3.498667-1.749333 5.248-5.248 5.248L517.333333 385.877333c-3.498667 0-5.248-1.749333-5.248-5.248L512.085333 312.618667z"  horiz-adv-x="1024" />

    
    <glyph glyph-name="sq16" unicode="&#58961;" d="M902.916 725.333h-781.831c-43.335 0-78.418-38.101-78.418-85.077v-512.512c0-46.891 35.122-85.077 78.418-85.077h781.831c43.335 0 78.418 38.101 78.418 85.077v512.512c0 46.891-35.122 85.077-78.418 85.077v0zM896 170.795c0-23.637-17.472-42.795-38.093-42.795h-691.814c-21.043 0-38.093 19.456-38.093 42.795v426.453c0 23.595 17.472 42.752 38.093 42.752h691.814c21.043 0 38.093-19.456 38.093-42.752v-426.453zM426.667 469.333c23.552 0 42.667 19.115 42.667 42.667s-19.115 42.667-42.667 42.667h-145.963c-47.189 0-85.547-38.229-85.547-85.291v-44.928c0-47.189 37.888-85.291 85.291-85.291h102.613c-0.043 0-0.043-40.576-0.043-40.576 0 0.043-148.352 0.085-148.352 0.085-23.552 0-42.667-19.115-42.667-42.667 0-23.552 19.115-42.667 42.667-42.667h148.608c46.976 0 85.077 38.229 85.077 85.248v40.619c0 47.061-38.187 85.248-85.291 85.248h-102.613c-0.171 0 0.043 44.885 0.043 44.885 0-0.085 146.176 0 146.176 0v0zM786.475 298.667v170.667c0 47.147-40.704 85.333-91.008 85.333h-91.008c-50.261 0-91.008-38.187-91.008-85.291v-170.667c0-47.147 40.789-85.333 91.008-85.333h182.016c25.131-0.043 45.525 19.029 45.525 42.624 0 23.552-20.395 42.667-45.525 42.667v0zM695.467 341.333c0-23.595-20.395-42.667-45.525-42.667-25.131 0-45.525 19.072-45.525 42.667v85.333c0 23.552 20.395 42.667 45.525 42.667 25.131 0 45.525-19.115 45.525-42.667v-85.333z"  horiz-adv-x="1024" />

    
    <glyph glyph-name="hq16" unicode="&#58963;" d="M902.916 725.333h-781.831c-43.335 0-78.418-38.101-78.418-85.077v-512.512c0-46.891 35.122-85.077 78.418-85.077h781.831c43.335 0 78.418 38.101 78.418 85.077v512.512c0 46.891-35.122 85.077-78.418 85.077v0zM896 170.795c0-23.637-17.472-42.795-38.093-42.795h-691.814c-21.043 0-38.093 19.456-38.093 42.795v426.411c0 23.637 17.472 42.795 38.093 42.795h691.814c21.043 0 38.093-19.456 38.093-42.795v-426.411zM419.541 554.667c-25.088 0-45.483-19.072-45.483-42.624v-85.333h-91.051v85.333c0 23.552-20.395 42.624-45.483 42.624-25.088 0-45.525-19.072-45.525-42.624v-256.043c0-23.595 20.395-42.667 45.525-42.667 25.131 0 45.525 19.072 45.525 42.667v85.333h91.008v-85.333c0-23.595 20.395-42.667 45.525-42.667 25.173 0 45.525 19.072 45.525 42.667v256.043c-0.043 23.552-20.395 42.624-45.568 42.624v0zM786.475 298.667v170.667c0 47.147-40.704 85.333-91.008 85.333h-91.008c-50.261 0-91.008-38.187-91.008-85.291v-170.667c0-47.147 40.789-85.333 91.008-85.333h182.016c25.131-0.043 45.525 19.029 45.525 42.624 0 23.552-20.395 42.667-45.525 42.667v0zM695.467 341.333c0-23.595-20.395-42.667-45.525-42.667-25.131 0-45.525 19.072-45.525 42.667v85.333c0 23.552 20.395 42.667 45.525 42.667 25.131 0 45.525-19.115 45.525-42.667v-85.333z"  horiz-adv-x="1024" />

    
    <glyph glyph-name="yinleliebiao" unicode="&#58919;" d="M916.891564 582.712761c-89.741907 0-91.63093 30.685883-161.795966 30.685883-47.406706 0-40.449247-30.685883-40.449247-30.685883l0-501.217423-0.189312 0c-2.047636-68.924789-27.181059-143.18919-171.717943-143.18919-72.592318 0-131.459031 50.371224-131.459031 112.502283 0 62.129013 58.866712 112.527866 131.459031 112.527866 18.2302 0 75.369571 0 111.234407 0L653.973502 797.496545c0 0-2.885723 30.685883 40.449247 30.685883 106.893542-20.467147 262.918062-40.286542 262.918062-71.595618 0-31.333636 0-143.18919 0-143.18919S957.339788 582.712761 916.891564 582.712761L916.891564 582.712761zM67.463508 331.496206l465.163275 0 0-62.075801L67.463508 269.420405 67.463508 331.496206 67.463508 331.496206zM67.463508 497.068172l465.163275 0 0-62.075801L67.463508 434.992371 67.463508 497.068172 67.463508 497.068172zM67.463508 662.639115l465.163275 0 0-62.075801L67.463508 600.563314 67.463508 662.639115 67.463508 662.639115z"  horiz-adv-x="1024" />

    
    <glyph glyph-name="playlist" unicode="&#58943;" d="M947.367 506.202c-10.958-10.922-28.727-10.922-39.685 0l-226.343 225.635v-656.373c0-2.479-0.361-4.87-0.98-7.156-6.501-71.819-78.596-128.42-166.625-128.42-92.278 0-167.137 62.244-167.137 139.007 0 76.727 74.859 138.97 167.137 138.97 42.782 0 81.795-13.376 111.349-35.359v614.177c0 0.399 0.044 0.788 0.061 1.184-0.455 7.7 2.236 15.551 8.137 21.437 10.961 10.927 28.73 10.927 39.687 0l274.399-273.54c10.961-10.924 10.961-28.635-0-39.562zM513.084 161.935c-65.815 0-111.679-43.781-111.679-83.080 0-39.301 45.864-83.122 111.679-83.122 65.774 0 111.639 43.821 111.639 83.122 0 39.299-45.865 83.080-111.639 83.080zM485.34 439.701h-389.754c-15.375 0-27.84 12.421-27.84 27.745 0 15.319 12.465 27.742 27.84 27.742h389.754c15.377 0 27.84-12.423 27.84-27.742 0-15.324-12.463-27.745-27.84-27.745zM485.34 606.162h-389.754c-15.375 0-27.84 12.42-27.84 27.745 0 15.324 12.465 27.744 27.84 27.744h389.754c15.377 0 27.84-12.42 27.84-27.744 0-15.325-12.463-27.745-27.84-27.745zM485.34 772.623h-389.754c-15.375 0-27.84 12.426-27.84 27.744 0 15.325 12.465 27.745 27.84 27.745h389.754c15.377 0 27.84-12.42 27.84-27.745 0-15.318-12.463-27.744-27.84-27.744z"  horiz-adv-x="1024" />

    
    <glyph glyph-name="cd1" unicode="&#58896;" d="M512 842.936889C258.929778 842.936889 53.048889 637.056 53.048889 384S258.929778-74.951111 512-74.951111c253.056 0 458.951111 205.895111 458.951111 458.951111S765.056 842.936889 512 842.936889zM512-18.062222C290.304-18.062222 109.937778 162.304 109.937778 384 109.937778 605.681778 290.304 786.048 512 786.048S914.062222 605.681778 914.062222 384C914.062222 162.304 733.696-18.062222 512-18.062222zM512 490.965333c-58.979556 0-106.951111-47.971556-106.951111-106.951111 0-58.979556 47.985778-106.965333 106.951111-106.965333 58.965333 0 106.951111 47.971556 106.951111 106.965333C618.951111 442.993778 570.965333 490.965333 512 490.965333zM512 333.937778c-27.619556 0-50.062222 22.442667-50.062222 50.062222 0 27.605333 22.456889 50.062222 50.062222 50.062222 27.576889 0 50.062222-22.456889 50.062222-50.062222C562.062222 356.394667 539.576889 333.937778 512 333.937778zM180.522667 351.402667c7.850667 0 13.895111 8.277333 13.539556 16.156444-0.227556 4.977778-0.341333 11.235556-0.341333 16.270222 0 7.850667-6.371556 14.051556-14.222222 14.051556-7.864889 0-14.222222-6.684444-14.222222-14.549333 0-5.475556 0.113778-11.605333 0.369778-17.024 0.355556-7.608889 6.641778-14.890667 14.193778-14.890667C180.053333 351.416889 180.280889 351.416889 180.522667 351.402667zM355.242667 106.894222c-83.512889 47.388444-140.714667 128.554667-156.942222 222.748444-1.322667 7.722667-8.604444 12.928-16.426667 11.576889-7.736889-1.336889-12.928-8.675556-11.591111-16.426667 17.692444-102.599111 79.985778-191.047111 170.951111-242.659556 2.218667-1.251556 4.622222-1.834667 6.997333-1.834667 4.963556 0 9.770667 2.588444 12.373333 7.196444C364.472889 94.336 362.069333 103.04 355.242667 106.894222zM327.822222 196.650667c3.598222 0 7.210667 1.351111 9.955556 4.067556 5.603556 5.518222 5.688889 14.506667 0.184889 20.110222-36.935111 37.603556-57.287111 87.324444-57.287111 140.017778 0 7.864889-6.371556 14.222222-14.222222 14.222222-7.864889 0-14.222222-6.357333-14.222222-14.222222 0-60.202667 23.239111-116.992 65.450667-159.943111C320.455111 198.087111 324.138667 196.650667 327.822222 196.650667zM382.094222 186.922667c-4.010667 2.304-7.936 4.693333-11.776 7.253333-6.556444 4.408889-15.36 2.602667-19.726222-3.953778-4.352-6.542222-2.574222-15.374222 3.953778-19.712 4.394667-2.944 8.903111-5.688889 13.496889-8.305778 2.204444-1.251556 4.622222-1.863111 6.997333-1.863111 4.963556 0 9.770667 2.588444 12.401778 7.196444C391.310222 174.364444 388.920889 183.054222 382.094222 186.922667zM401.251556 269.923556c-26.979556 15.274667-43.733333 44.032-43.733333 74.993778 0 7.864889-6.371556 14.222222-14.222222 14.222222-7.864889 0-14.222222-6.357333-14.222222-14.222222 0-41.187556 22.286222-79.416889 58.154667-99.783111 2.204444-1.251556 4.622222-1.834667 6.997333-1.834667 4.935111 0 9.756444 2.588444 12.373333 7.224889C410.467556 257.365333 408.078222 266.040889 401.251556 269.923556zM711.466667 678.926222c-6.314667 4.650667-15.232 3.271111-19.868444-3.043556-4.636444-6.328889-3.256889-15.232 3.057778-19.868444 92.188444-67.697778 141.155556-180.437333 127.744-294.229333-0.896-7.779556 4.650667-14.862222 12.472889-15.772444 0.554667-0.085333 1.123556-0.113778 1.678222-0.113778 7.111111 0 13.255111 5.333333 14.08 12.558222C865.251556 482.389333 811.918222 605.184 711.466667 678.926222zM678.670222 595.100444c-6.328889 4.650667-15.246222 3.256889-19.882667-3.043556-4.622222-6.328889-3.256889-15.232 3.072-19.868444 57.870222-42.481778 88.590222-113.251556 80.170667-184.661333-0.896-7.793778 4.650667-14.876444 12.458667-15.772444 0.568889-0.085333 1.123556-0.113778 1.678222-0.113778 7.111111 0 13.269333 5.319111 14.094222 12.544C779.861333 465.749333 744.775111 546.574222 678.670222 595.100444zM646.044444 523.761778c-6.314667 4.636444-15.232 3.271111-19.868444-3.043556-4.636444-6.328889-3.271111-15.232 3.057778-19.868444 24.96-18.332444 38.229333-48.853333 34.588444-79.658667-0.910222-7.793778 4.650667-14.876444 12.458667-15.786667 0.568889-0.071111 1.123556-0.099556 1.678222-0.099556 7.111111 0 13.255111 5.319111 14.094222 12.558222C696.860444 458.823111 679.239111 499.384889 646.044444 523.761778z"  horiz-adv-x="1024" />

    
    <glyph glyph-name="bofangliebiao-copy-copy-copy" unicode="&#58882;" d="M859.802 671.049v-75.78h-695.228v75.78zM859.615 455.712v-75.78h-695.228v75.78zM657.38 240.289v-75.78h-492.917v75.78zM706.421 96.869l153.298 125.14-153.298 125.14z"  horiz-adv-x="1024" />

    
    <glyph glyph-name="wusun_" unicode="&#58940;" d="M895.549746 665.408642H128.451277c-43.067802 0-76.937123-34.508886-76.937123-77.077315v-408.662654c0-42.717832 34.446464-77.077315 76.937123-77.077315h767.098469c43.066779 0 76.937123 34.508886 76.937123 77.077315V588.331327c0 42.717832-34.445441 77.077315-76.937123 77.077315z m10.422353-485.739969c0-6.137778-4.394068-10.562545-10.423376-10.562545H128.451277c-5.801111 0-10.422353 4.624311-10.422353 10.562545V588.331327c0 6.137778 4.394068 10.562545 10.422353 10.562545h767.098469c5.800088 0 10.423376-4.624311 10.423376-10.562545v-408.662654zM841.804789 258.720966c-4.865811 4.157685-11.076244 9.0061-18.453244 14.47566-2.209314 1.633193-2.209314 1.633193-4.421697 3.251038a1021.67403 1021.67403 0 0 1-30.914019 21.646976c-11.731159 7.874325-27.625119 4.747108-35.498421-6.984051-7.874325-11.731159-4.748131-27.624096 6.984051-35.498421a973.452868 973.452868 0 0 0 29.281848-20.504969 646.464212 646.464212 0 0 0 4.09731-3.012607c6.510261-4.826926 11.871351-9.011216 15.68623-12.271464 10.7406-9.179038 26.889363-7.912188 36.068401 2.829436 9.176992 10.741624 7.910141 26.889363-2.830459 36.068402zM743.076404 356.927465c-13.865771 2.713803-27.305848-6.326066-30.020674-20.191837-1.704825-8.714458-7.197921-23.48176-17.774793-38.084311-11.55515-15.953312-26.706192-27.498229-46.4181-33.339249-13.547524-4.014422-21.274493-18.249606-17.261094-31.79713 4.014422-13.5465 18.249606-21.274493 31.79713-17.260071 31.197474 9.24453 55.471272 27.739729 73.318719 52.381916 15.595155 21.530319 23.541112 42.895887 26.55065 58.270008 2.714826 13.866795-6.326066 27.306871-20.191838 30.020674zM667.685494 294.09045c14.12876 0 25.582604 11.453843 25.582604 25.582604v52.030923c0 0.444114-0.01228 0.431834 0.218987 0.431835h104.646152c0.333597 0 0.218987 0.113587 0.218987-0.431835v-52.030923c0-14.12876 11.453843-25.582604 25.582604-25.582604s25.582604 11.453843 25.582604 25.582604v52.030923c0 28.86741-22.857545 51.597042-51.384195 51.597042H693.487085c-28.681169 0-51.384195-23.084718-51.384195-51.597042v-52.030923c0-14.12876 11.453843-25.582604 25.582604-25.582604zM713.220482 435.179534h65.179358c28.371108 0 51.593972 22.776704 51.593972 51.108926v15.462126c0 28.207379-23.237191 51.108926-51.593972 51.108926h-65.179358c-28.371108 0-51.593972-22.776704-51.593972-51.108926v-15.462126c0.001023-28.207379 23.238214-51.108926 51.593972-51.108926z m-0.427741 71.660966c0-0.150426 0.096191-0.056282 0.428764-0.056281h65.179358c0.264012 0 0.428764-0.161682 0.428765 0.056281v-25.640932c0 0.150426-0.096191 0.056282-0.428765 0.056282h-65.179358c-0.264012 0-0.428764 0.161682-0.428764-0.056282v25.640932zM486.714154 305.508478c-13.79414 3.055586-27.454227-5.649662-30.509813-19.443802-2.007723-9.063405-5.254667-14.460311-9.203598-17.704185-2.5644-2.108007-4.870928-2.93279-5.306855-3.063773-1.483791 0.014326-9.631339 0.014326-42.313627 0.014326-7.765855 0-10.492961 2.138706-12.807674 8.127082-1.815342 4.697989-2.447744 10.255554-2.332111 14.010057l0.025583 91.232682h75.492217c16.955127 0 30.699125 13.743998 30.699125 30.699125 0 16.954103-13.743998 30.699125-30.699125 30.699124H345.523764l2.024095 40.932166h86.62679c16.955127 0 30.699125 13.743998 30.699125 30.699125 0 16.954103-13.743998 30.699125-30.699125 30.699125h-204.66083c-16.955127 0-30.699125-13.745021-30.699125-30.699125 0-16.955127 13.743998-30.699125 30.699125-30.699125h66.815621l-2.010793-40.932166h-90.387432c-16.955127 0-30.699125-13.745021-30.699125-30.699124 0-16.955127 13.743998-30.699125 30.699125-30.699125h81.812144c-6.047728-17.713395-15.55627-35.765503-29.278779-53.419547-17.436079-22.43185-33.99928-40.279298-49.09097-53.982364-8.678643-7.880465-14.676228-12.486357-17.391054-14.25258-11.844746-7.703434-15.201183-23.549298-7.498773-35.394044 7.703434-11.844746 23.549298-15.201183 35.394044-7.498773 17.746141 11.540824 45.750905 36.970956 78.983731 79.72665 17.148531 22.062438 28.795779 43.693041 36.243387 63.539002v-68.694408c-0.314154-9.670224 1.036607-21.536459 5.739713-33.709686 9.513659-24.623768 30.207939-40.851325 60.533557-40.851325h43.539545c11.390399 0.546444 24.133605 4.468769 36.565727 14.685438 12.916145 10.614734 22.222073 26.080953 26.672423 46.16739 3.058656 13.796187-5.646592 27.456274-19.441756 30.51186zM559.35954 376.74068v69.919303h-13.840189c-16.954103 0-30.699125 13.743998-30.699125 30.699125s13.745021 30.699125 30.699125 30.699124h13.840189v24.364872c0 14.12876 11.453843 25.582604 25.582603 25.582604s25.582604-11.453843 25.582604-25.582604v-24.364872h12.260207c16.954103 0 30.699125-13.743998 30.699125-30.699124s-13.745021-30.699125-30.699125-30.699125h-12.260207v-31.319247c7.58473 1.192149 15.620738-1.029444 21.616277-6.727201 10.241228-9.733669 10.651573-25.926434 0.918927-36.167662a261.900372 261.900372 0 0 0-14.166622-13.805397 308.580437 308.580437 0 0 0-8.368582-7.297181v-76.475613c0.074701-7.994052-1.587145-17.781956-6.918559-27.992485-10.767206-20.620602-32.234081-32.068306-61.127074-29.248079-14.062246 1.372251-24.349522 13.884191-22.976248 27.946436s13.885214 24.348499 27.946436 22.976248c8.258065-0.806364 9.749019-0.011256 10.803022 2.007723 0.769525 1.474581 1.113355 3.495607 1.108239 4.095263v42.235856a185.187353 185.187353 0 0 0-10.101035-4.810553c-12.942751-5.666035-28.028301 0.23229-33.69536 13.175041-5.667058 12.942751 0.23229 28.028301 13.175041 33.695359 3.008514 1.316992 8.944702 4.312204 16.810841 8.978471a251.961019 251.961019 0 0 1 13.80949 8.813718z"  horiz-adv-x="1024" />

    
    <glyph glyph-name="LQ_" unicode="&#58942;" d="M902.650454 725.101043H121.35057c-43.305208 0-78.364632-38.075101-78.364632-85.019179v-512.163728c0-46.859144 35.098309-85.019179 78.364632-85.019179h781.299884c43.305208 0 78.363609 38.075101 78.363608 85.019179v512.163728c0 46.859144-35.097286 85.019179-78.363608 85.019179z m-6.911397-554.161154c0-23.62093-17.459615-42.765927-38.066914-42.765927h-691.344286c-21.0289 0-38.066914 19.442779-38.066914 42.765927V597.060111c0 23.621953 17.459615 42.765927 38.066914 42.765927h691.344286c21.0289 0 38.066914-19.442779 38.066914-42.765927v-426.120222zM425.779462 296.593452H283.199424l-0.035815 215.363569c0 23.535996-20.381149 42.595035-45.452101 42.595036s-45.494056-19.05904-45.494056-42.595036v-255.869017c0-14.716137 7.939817-27.670144 20.012759-35.330599 6.685246-4.612032 14.787768-7.307415 23.52781-7.307415h190.021441c22.69177 0 41.450981 18.611856 41.450981 41.571731 0 23.119511-18.557621 41.571731-41.450981 41.571731zM786.288492 298.724995V469.276028c0 47.11497-40.67634 85.276028-90.946157 85.276029H604.396179c-50.226838 0-90.946157-38.161058-90.946157-85.23305v-170.551033c0-47.11497 40.761274-85.275005 90.946157-85.275005h181.892313c25.112907-0.042979 45.494056 19.016061 45.494056 42.595035 0 23.534972-20.381149 42.636991-45.494056 42.636991z m-90.946157 42.638014c0-23.578974-20.381149-42.638014-45.495079-42.638014-25.112907 0-45.494056 19.05904-45.494056 42.638014v85.275005c0 23.535996 20.381149 42.638014 45.494056 42.638014 25.113931 0 45.495079-19.102019 45.495079-42.638014v-85.275005z"  horiz-adv-x="1024" />

    
    <glyph glyph-name="ic_equalizer_px" unicode="&#59022;" d="M426.666667 42.666667h170.666666V725.333333h-170.666666v-682.666666zM170.666667 42.666667h170.666666V384H170.666667v-341.333333z m512 469.333333v-469.333333h170.666666V512h-170.666666z"  horiz-adv-x="1024" />

    
    <glyph glyph-name="biao-" unicode="&#58923;" d="M68.5568 253.44a40.0896 40.0896 0 0 1 27.904 49.3568A275.8144 275.8144 0 0 0 361.984 652.288h373.3504v-71.0656c0-22.8352 15.872-31.6416 35.2768-19.6096l171.0592 105.984c19.4048 12.032 19.5584 31.9488 0.4096 44.3392l-171.9296 110.9504c-19.1488 12.3904-34.816 3.84-34.816-18.944v-71.424H361.9328a355.9936 355.9936 0 0 1-343.04-451.1744 40.1408 40.1408 0 0 1 38.656-29.3888 39.5264 39.5264 0 0 1 10.752 1.4848zM992.7168 502.9376a40.1408 40.1408 0 0 1-38.6048 29.5424 39.68 39.68 0 0 1-10.752-1.4848 40.0896 40.0896 0 0 1-27.9552-49.7152 275.8144 275.8144 0 0 0-265.5232-349.4912H276.48v71.2704c0 22.8352-15.872 31.6416-35.2768 19.6096L70.2464 116.736c-19.4048-12.032-19.5584-31.9488-0.4096-44.3392l171.8784-111.0016c19.1488-12.3904 34.816-3.84 34.816 18.944v71.424h373.3504a356.096 356.096 0 0 1 343.04 451.1744z"  horiz-adv-x="1024" />

    
    <glyph glyph-name="playlist1" unicode="&#59021;" d="M33.999 832.031984h447.776112a31.984008 31.984008 0 0 1 0 63.968016h-447.776112a31.984008 31.984008 0 0 1 0-63.968016z m0-191.904048h447.776112a31.984008 31.984008 0 0 1 0 63.968016h-447.776112a31.984008 31.984008 0 0 1 0-63.968016z m479.76012-159.92004a31.984008 31.984008 0 0 1-31.984008 31.984008h-447.776112a31.984008 31.984008 0 0 1 0-63.968016h447.776112a31.984008 31.984008 0 0 1 31.984008 31.984008z m498.854573 91.154423L699.874063 884.101949a31.824088 31.824088 0 0 1-36.557721 6.012994 31.888056 31.888056 0 0 1-21.589206-30.128936v-708.029985c-33.903048 25.107446-78.392804 40.523738-127.296351 40.523738-105.995002 0-192-71.74013-192-160.207896s85.973013-160.23988 192-160.23988c106.090955 0 192 71.772114 192 160.271864 0 3.998001-0.383808 7.932034-0.735633 11.866067V787.894053l261.725138-261.725137a32.015992 32.015992 0 0 1 45.257371 45.257371zM641.695152 29.137431c-2.302849-44.457771-54.18091-92.785607-128.063968-92.785607-75.610195 0-128.287856 50.534733-128.287856 95.824088 0 45.321339 52.677661 95.792104 128.287856 95.792104 73.915042 0 125.761119-48.231884 128.063968-92.721639v-6.108946z"  horiz-adv-x="1024" />

    


  </font>
</defs>
</svg>
